<?xml version="1.0" standalone="no"?>
<!DOCTYPE svg PUBLIC "-//W3C//DTD SVG 20010904//EN" "http://www.w3.org/TR/2001/REC-SVG-20010904/DTD/svg10.dtd">
<svg version="1.0" xmlns="http://www.w3.org/2000/svg" width="100.000000pt" height="100.000000pt"
  viewBox="0 0 100.000000 100.000000" preserveAspectRatio="xMidYMid meet">
  <metadata>
    Created by potrace 1.16, written by Peter Selinger 2001-2019
  </metadata>
  <g transform="translate(0.000000,100.000000) scale(0.100000,-0.100000)" fill="#000000" stroke="none">
    <path d="M404 952 c-76 -27 -129 -74 -164 -146 -53 -107 -41 -228 33 -328 13
-18 32 -54 41 -81 10 -26 27 -54 39 -62 21 -15 120 -21 151 -9 21 8 94 106
127 173 57 111 30 211 -56 211 -20 0 -46 -5 -57 -11 -14 -8 -23 -8 -31 0 -6 6
-30 11 -53 11 -82 0 -118 -85 -74 -174 26 -53 78 -108 99 -104 28 5 25 46 -6
81 -61 69 -66 132 -12 132 20 0 25 -6 29 -35 4 -26 10 -36 27 -38 22 -3 46 25
41 49 -4 16 26 33 46 26 39 -15 -3 -137 -79 -224 -29 -34 -43 -43 -68 -43 -44
0 -54 9 -72 60 -9 25 -32 68 -52 98 -109 157 1 367 192 366 64 -1 101 -15 154
-60 80 -67 101 -195 48 -286 -15 -27 -39 -68 -53 -93 -15 -26 -28 -68 -31
-100 -4 -42 -11 -60 -27 -70 -20 -13 -114 -32 -186 -37 -30 -3 -35 -7 -35 -28
0 -24 2 -25 96 -31 96 -7 150 -22 119 -33 -8 -3 -57 -7 -109 -8 -76 -2 -96 -6
-105 -20 -17 -27 1 -35 102 -46 81 -8 97 -13 122 -37 48 -46 98 -8 52 40 -17
18 -17 20 0 37 23 23 23 59 -1 84 -18 19 -18 19 2 41 13 15 23 46 29 85 6 43
18 78 38 108 64 96 75 129 75 220 0 73 -4 92 -27 135 -71 134 -226 197 -364
147z" />
  </g>
</svg>